<svg width="352" height="203" viewBox="0 0 352 203" fill="none" xmlns="http://www.w3.org/2000/svg">
<path d="M143.555 104.858L134.766 90.332V0H143.555V104.858ZM161.133 133.667L152.344 118.896V0H161.133V133.667ZM178.711 162.842L169.922 147.949V0H178.711V162.842ZM52.7344 97.29L61.5234 111.816V202.148H52.7344V97.29ZM35.1562 68.4814L43.9453 83.252V202.148H35.1562V68.4814ZM17.5781 39.3066L26.3672 54.1992V202.148H17.5781V39.3066ZM20.6299 0H30.8838L155.151 202.148H144.897L20.6299 0ZM41.3818 0H51.7578L175.903 202.148H165.405L41.3818 0ZM62.0117 0H72.2656L187.5 187.866V0H196.289V202.148C196.289 202.148 192.83 202.148 185.913 202.148L62.0117 0ZM8.78906 14.2822V202.148H0V0C0 0 3.49935 0 10.498 0L134.399 202.148H124.268L8.78906 14.2822ZM219.482 0H228.271V202.148H219.482V0ZM272.217 0H281.006V158.203H351.318V166.992H281.006V175.781H351.318V184.57H281.006V193.359H351.318V202.148H272.217V0ZM254.639 0H263.428V202.148H254.639V0ZM237.061 0H245.85V202.148H237.061V0Z" fill="white"/>
</svg>
